<svg id="visual" viewBox="0 0 900 600" width="900" height="600" xmlns="http://www.w3.org/2000/svg" xmlns:xlink="http://www.w3.org/1999/xlink" version="1.1"><rect x="0" y="0" width="900" height="600" fill="#FFFFFF"></rect><path d="M0 413L16.7 421.7C33.3 430.3 66.7 447.7 100 451C133.3 454.3 166.7 443.7 200 440.2C233.3 436.7 266.7 440.3 300 446.5C333.3 452.7 366.7 461.3 400 449.8C433.3 438.3 466.7 406.7 500 404.3C533.3 402 566.7 429 600 434.7C633.3 440.3 666.7 424.7 700 419.7C733.3 414.7 766.7 420.3 800 427.5C833.3 434.7 866.7 443.3 883.3 447.7L900 452L900 601L883.3 601C866.7 601 833.3 601 800 601C766.7 601 733.3 601 700 601C666.7 601 633.3 601 600 601C566.7 601 533.3 601 500 601C466.7 601 433.3 601 400 601C366.7 601 333.3 601 300 601C266.7 601 233.3 601 200 601C166.7 601 133.3 601 100 601C66.7 601 33.3 601 16.7 601L0 601Z" fill="#f1a566"></path><path d="M0 447L16.7 438C33.3 429 66.7 411 100 414C133.3 417 166.7 441 200 446.3C233.3 451.7 266.7 438.3 300 428.5C333.3 418.7 366.7 412.3 400 414C433.3 415.7 466.7 425.3 500 438C533.3 450.7 566.7 466.3 600 470C633.3 473.7 666.7 465.3 700 461.5C733.3 457.7 766.7 458.3 800 448.7C833.3 439 866.7 419 883.3 409L900 399L900 601L883.3 601C866.7 601 833.3 601 800 601C766.7 601 733.3 601 700 601C666.7 601 633.3 601 600 601C566.7 601 533.3 601 500 601C466.7 601 433.3 601 400 601C366.7 601 333.3 601 300 601C266.7 601 233.3 601 200 601C166.7 601 133.3 601 100 601C66.7 601 33.3 601 16.7 601L0 601Z" fill="#f7845d"></path><path d="M0 509L16.7 504.3C33.3 499.7 66.7 490.3 100 480.3C133.3 470.3 166.7 459.7 200 451.7C233.3 443.7 266.7 438.3 300 440.5C333.3 442.7 366.7 452.3 400 454.7C433.3 457 466.7 452 500 447C533.3 442 566.7 437 600 444C633.3 451 666.7 470 700 469.5C733.3 469 766.7 449 800 439.2C833.3 429.3 866.7 429.7 883.3 429.8L900 430L900 601L883.3 601C866.7 601 833.3 601 800 601C766.7 601 733.3 601 700 601C666.7 601 633.3 601 600 601C566.7 601 533.3 601 500 601C466.7 601 433.3 601 400 601C366.7 601 333.3 601 300 601C266.7 601 233.3 601 200 601C166.7 601 133.3 601 100 601C66.7 601 33.3 601 16.7 601L0 601Z" fill="#f95f62"></path><path d="M0 525L16.7 517.3C33.3 509.7 66.7 494.3 100 489C133.3 483.7 166.7 488.3 200 494.5C233.3 500.7 266.7 508.3 300 503.2C333.3 498 366.7 480 400 481.7C433.3 483.3 466.7 504.7 500 505.5C533.3 506.3 566.7 486.7 600 481.5C633.3 476.3 666.7 485.7 700 486.8C733.3 488 766.7 481 800 484.7C833.3 488.3 866.7 502.7 883.3 509.8L900 517L900 601L883.3 601C866.7 601 833.3 601 800 601C766.7 601 733.3 601 700 601C666.7 601 633.3 601 600 601C566.7 601 533.3 601 500 601C466.7 601 433.3 601 400 601C366.7 601 333.3 601 300 601C266.7 601 233.3 601 200 601C166.7 601 133.3 601 100 601C66.7 601 33.3 601 16.7 601L0 601Z" fill="#f33173"></path><path d="M0 542L16.7 539C33.3 536 66.7 530 100 528.8C133.3 527.7 166.7 531.3 200 529.5C233.3 527.7 266.7 520.3 300 512.2C333.3 504 366.7 495 400 491.2C433.3 487.3 466.7 488.7 500 497C533.3 505.3 566.7 520.7 600 528.2C633.3 535.7 666.7 535.3 700 527.8C733.3 520.3 766.7 505.7 800 503.3C833.3 501 866.7 511 883.3 516L900 521L900 601L883.3 601C866.7 601 833.3 601 800 601C766.7 601 733.3 601 700 601C666.7 601 633.3 601 600 601C566.7 601 533.3 601 500 601C466.7 601 433.3 601 400 601C366.7 601 333.3 601 300 601C266.7 601 233.3 601 200 601C166.7 601 133.3 601 100 601C66.7 601 33.3 601 16.7 601L0 601Z" fill="#e0008d"></path><path d="M0 536L16.7 532.5C33.3 529 66.7 522 100 519.7C133.3 517.3 166.7 519.7 200 522.7C233.3 525.7 266.7 529.3 300 532C333.3 534.7 366.7 536.3 400 533.3C433.3 530.3 466.7 522.7 500 523C533.3 523.3 566.7 531.7 600 532C633.3 532.3 666.7 524.7 700 524C733.3 523.3 766.7 529.7 800 534.8C833.3 540 866.7 544 883.3 546L900 548L900 601L883.3 601C866.7 601 833.3 601 800 601C766.7 601 733.3 601 700 601C666.7 601 633.3 601 600 601C566.7 601 533.3 601 500 601C466.7 601 433.3 601 400 601C366.7 601 333.3 601 300 601C266.7 601 233.3 601 200 601C166.7 601 133.3 601 100 601C66.7 601 33.3 601 16.7 601L0 601Z" fill="#bb00ab"></path><path d="M0 566L16.7 563.7C33.3 561.3 66.7 556.7 100 558.3C133.3 560 166.7 568 200 567.7C233.3 567.3 266.7 558.7 300 553.3C333.3 548 366.7 546 400 549.3C433.3 552.7 466.7 561.3 500 566.8C533.3 572.3 566.7 574.7 600 570.3C633.3 566 666.7 555 700 553.8C733.3 552.7 766.7 561.3 800 565.3C833.3 569.3 866.7 568.7 883.3 568.3L900 568L900 601L883.3 601C866.7 601 833.3 601 800 601C766.7 601 733.3 601 700 601C666.7 601 633.3 601 600 601C566.7 601 533.3 601 500 601C466.7 601 433.3 601 400 601C366.7 601 333.3 601 300 601C266.7 601 233.3 601 200 601C166.7 601 133.3 601 100 601C66.7 601 33.3 601 16.7 601L0 601Z" fill="#760fcb"></path></svg>