<svg id="visual" viewBox="0 0 300 50" width="300" height="50" xmlns="http://www.w3.org/2000/svg" xmlns:xlink="http://www.w3.org/1999/xlink" version="1.1"><rect x="0" y="0" width="300" height="50" fill="#FFFFFF"></rect><path d="M0 24L3.8 26C7.7 28 15.3 32 23 33.2C30.7 34.3 38.3 32.7 46 31.2C53.7 29.7 61.3 28.3 69 29.8C76.7 31.3 84.3 35.7 92 34.8C99.7 34 107.3 28 115 27.2C122.7 26.3 130.3 30.7 138.2 32.7C146 34.7 154 34.3 161.8 33.2C169.7 32 177.3 30 185 30.7C192.7 31.3 200.3 34.7 208 33.8C215.7 33 223.3 28 231 27.3C238.7 26.7 246.3 30.3 254 32C261.7 33.7 269.3 33.3 277 33.2C284.7 33 292.3 33 296.2 33L300 33L300 0L296.2 0C292.3 0 284.7 0 277 0C269.3 0 261.7 0 254 0C246.3 0 238.7 0 231 0C223.3 0 215.7 0 208 0C200.3 0 192.7 0 185 0C177.3 0 169.7 0 161.8 0C154 0 146 0 138.2 0C130.3 0 122.7 0 115 0C107.3 0 99.7 0 92 0C84.3 0 76.7 0 69 0C61.3 0 53.7 0 46 0C38.3 0 30.7 0 23 0C15.3 0 7.7 0 3.8 0L0 0Z" fill="#f1a566"></path><path d="M0 26L3.8 24.7C7.7 23.3 15.3 20.7 23 20.5C30.7 20.3 38.3 22.7 46 23.7C53.7 24.7 61.3 24.3 69 23.7C76.7 23 84.3 22 92 22.3C99.7 22.7 107.3 24.3 115 25.7C122.7 27 130.3 28 138.2 27.2C146 26.3 154 23.7 161.8 22.8C169.7 22 177.3 23 185 23.3C192.7 23.7 200.3 23.3 208 24.7C215.7 26 223.3 29 231 29.3C238.7 29.7 246.3 27.3 254 27.3C261.7 27.3 269.3 29.7 277 28.8C284.7 28 292.3 24 296.2 22L300 20L300 0L296.2 0C292.3 0 284.7 0 277 0C269.3 0 261.7 0 254 0C246.3 0 238.7 0 231 0C223.3 0 215.7 0 208 0C200.3 0 192.7 0 185 0C177.3 0 169.7 0 161.8 0C154 0 146 0 138.2 0C130.3 0 122.7 0 115 0C107.3 0 99.7 0 92 0C84.3 0 76.7 0 69 0C61.3 0 53.7 0 46 0C38.3 0 30.7 0 23 0C15.3 0 7.7 0 3.8 0L0 0Z" fill="#f9725e"></path><path d="M0 23L3.8 22.5C7.7 22 15.3 21 23 21C30.7 21 38.3 22 46 21C53.7 20 61.3 17 69 16C76.7 15 84.3 16 92 16C99.7 16 107.3 15 115 16.3C122.7 17.7 130.3 21.3 138.2 22.7C146 24 154 23 161.8 22.7C169.7 22.3 177.3 22.7 185 21.8C192.7 21 200.3 19 208 17.5C215.7 16 223.3 15 231 15.3C238.7 15.7 246.3 17.3 254 17.2C261.7 17 269.3 15 277 15.3C284.7 15.7 292.3 18.3 296.2 19.7L300 21L300 0L296.2 0C292.3 0 284.7 0 277 0C269.3 0 261.7 0 254 0C246.3 0 238.7 0 231 0C223.3 0 215.7 0 208 0C200.3 0 192.7 0 185 0C177.3 0 169.7 0 161.8 0C154 0 146 0 138.2 0C130.3 0 122.7 0 115 0C107.3 0 99.7 0 92 0C84.3 0 76.7 0 69 0C61.3 0 53.7 0 46 0C38.3 0 30.7 0 23 0C15.3 0 7.7 0 3.8 0L0 0Z" fill="#f33173"></path><path d="M0 8L3.8 9.2C7.7 10.3 15.3 12.7 23 14.3C30.7 16 38.3 17 46 16.8C53.7 16.7 61.3 15.3 69 14.2C76.7 13 84.3 12 92 12.5C99.7 13 107.3 15 115 15.8C122.7 16.7 130.3 16.3 138.2 15C146 13.7 154 11.3 161.8 11C169.7 10.7 177.3 12.3 185 13.7C192.7 15 200.3 16 208 16.5C215.7 17 223.3 17 231 16C238.7 15 246.3 13 254 12.5C261.7 12 269.3 13 277 12.5C284.7 12 292.3 10 296.2 9L300 8L300 0L296.2 0C292.3 0 284.7 0 277 0C269.3 0 261.7 0 254 0C246.3 0 238.7 0 231 0C223.3 0 215.7 0 208 0C200.3 0 192.7 0 185 0C177.3 0 169.7 0 161.8 0C154 0 146 0 138.2 0C130.3 0 122.7 0 115 0C107.3 0 99.7 0 92 0C84.3 0 76.7 0 69 0C61.3 0 53.7 0 46 0C38.3 0 30.7 0 23 0C15.3 0 7.7 0 3.8 0L0 0Z" fill="#d0009c"></path><path d="M0 10L3.8 9.5C7.7 9 15.3 8 23 7.7C30.7 7.3 38.3 7.7 46 7.8C53.7 8 61.3 8 69 8.3C76.7 8.7 84.3 9.3 92 9.5C99.7 9.7 107.3 9.3 115 8.7C122.7 8 130.3 7 138.2 6.3C146 5.7 154 5.3 161.8 6.2C169.7 7 177.3 9 185 9.8C192.7 10.7 200.3 10.3 208 9.2C215.7 8 223.3 6 231 5.5C238.7 5 246.3 6 254 6.7C261.7 7.3 269.3 7.7 277 7.8C284.7 8 292.3 8 296.2 8L300 8L300 0L296.2 0C292.3 0 284.7 0 277 0C269.3 0 261.7 0 254 0C246.3 0 238.7 0 231 0C223.3 0 215.7 0 208 0C200.3 0 192.7 0 185 0C177.3 0 169.7 0 161.8 0C154 0 146 0 138.2 0C130.3 0 122.7 0 115 0C107.3 0 99.7 0 92 0C84.3 0 76.7 0 69 0C61.3 0 53.7 0 46 0C38.3 0 30.7 0 23 0C15.3 0 7.7 0 3.8 0L0 0Z" fill="#760fcb"></path></svg>