<svg id="visual" viewBox="0 0 300 50" width="300" height="50" xmlns="http://www.w3.org/2000/svg" xmlns:xlink="http://www.w3.org/1999/xlink" version="1.1"><rect x="0" y="0" width="300" height="50" fill="#FFFFFF"></rect><path d="M0 29L3 28.3C6 27.7 12 26.3 17.8 27.5C23.7 28.7 29.3 32.3 35.2 33.3C41 34.3 47 32.7 53 30.7C59 28.7 65 26.3 70.8 26.8C76.7 27.3 82.3 30.7 88.2 30.8C94 31 100 28 106 28.8C112 29.7 118 34.3 123.8 36.7C129.7 39 135.3 39 141.2 37.3C147 35.7 153 32.3 158.8 32.3C164.7 32.3 170.3 35.7 176.2 35.3C182 35 188 31 194 30.5C200 30 206 33 211.8 34.3C217.7 35.7 223.3 35.3 229.2 34.3C235 33.3 241 31.7 247 30.5C253 29.3 259 28.7 264.8 27.7C270.7 26.7 276.3 25.3 282.2 25C288 24.7 294 25.3 297 25.7L300 26L300 0L297 0C294 0 288 0 282.2 0C276.3 0 270.7 0 264.8 0C259 0 253 0 247 0C241 0 235 0 229.2 0C223.3 0 217.7 0 211.8 0C206 0 200 0 194 0C188 0 182 0 176.2 0C170.3 0 164.7 0 158.8 0C153 0 147 0 141.2 0C135.3 0 129.7 0 123.8 0C118 0 112 0 106 0C100 0 94 0 88.2 0C82.3 0 76.7 0 70.8 0C65 0 59 0 53 0C47 0 41 0 35.2 0C29.3 0 23.7 0 17.8 0C12 0 6 0 3 0L0 0Z" fill="#fcaf3c"></path><path d="M0 30L3 29.7C6 29.3 12 28.7 17.8 28C23.7 27.3 29.3 26.7 35.2 25.7C41 24.7 47 23.3 53 24C59 24.7 65 27.3 70.8 27.5C76.7 27.7 82.3 25.3 88.2 25.2C94 25 100 27 106 27.2C112 27.3 118 25.7 123.8 24.8C129.7 24 135.3 24 141.2 23.7C147 23.3 153 22.7 158.8 22.8C164.7 23 170.3 24 176.2 23.3C182 22.7 188 20.3 194 21.2C200 22 206 26 211.8 27.8C217.7 29.7 223.3 29.3 229.2 28.3C235 27.3 241 25.7 247 25C253 24.3 259 24.7 264.8 24.2C270.7 23.7 276.3 22.3 282.2 21.3C288 20.3 294 19.7 297 19.3L300 19L300 0L297 0C294 0 288 0 282.2 0C276.3 0 270.7 0 264.8 0C259 0 253 0 247 0C241 0 235 0 229.2 0C223.3 0 217.7 0 211.8 0C206 0 200 0 194 0C188 0 182 0 176.2 0C170.3 0 164.7 0 158.8 0C153 0 147 0 141.2 0C135.3 0 129.7 0 123.8 0C118 0 112 0 106 0C100 0 94 0 88.2 0C82.3 0 76.7 0 70.8 0C65 0 59 0 53 0C47 0 41 0 35.2 0C29.3 0 23.7 0 17.8 0C12 0 6 0 3 0L0 0Z" fill="#ff7144"></path><path d="M0 18L3 17.2C6 16.3 12 14.7 17.8 14C23.7 13.3 29.3 13.7 35.2 15.2C41 16.7 47 19.3 53 19.7C59 20 65 18 70.8 17.2C76.7 16.3 82.3 16.7 88.2 17.5C94 18.3 100 19.7 106 19.7C112 19.7 118 18.3 123.8 18.3C129.7 18.3 135.3 19.7 141.2 20.7C147 21.7 153 22.3 158.8 21C164.7 19.7 170.3 16.3 176.2 16.2C182 16 188 19 194 20.3C200 21.7 206 21.3 211.8 21C217.7 20.7 223.3 20.3 229.2 19.3C235 18.3 241 16.7 247 16.2C253 15.7 259 16.3 264.8 16.8C270.7 17.3 276.3 17.7 282.2 17.2C288 16.7 294 15.3 297 14.7L300 14L300 0L297 0C294 0 288 0 282.2 0C276.3 0 270.7 0 264.8 0C259 0 253 0 247 0C241 0 235 0 229.2 0C223.3 0 217.7 0 211.8 0C206 0 200 0 194 0C188 0 182 0 176.2 0C170.3 0 164.7 0 158.8 0C153 0 147 0 141.2 0C135.3 0 129.7 0 123.8 0C118 0 112 0 106 0C100 0 94 0 88.2 0C82.3 0 76.7 0 70.8 0C65 0 59 0 53 0C47 0 41 0 35.2 0C29.3 0 23.7 0 17.8 0C12 0 6 0 3 0L0 0Z" fill="#ff1668"></path><path d="M0 9L3 10.5C6 12 12 15 17.8 16.3C23.7 17.7 29.3 17.3 35.2 16.5C41 15.7 47 14.3 53 14.3C59 14.3 65 15.7 70.8 15C76.7 14.3 82.3 11.7 88.2 10.3C94 9 100 9 106 9.7C112 10.3 118 11.7 123.8 13C129.7 14.3 135.3 15.7 141.2 16.3C147 17 153 17 158.8 16C164.7 15 170.3 13 176.2 11.8C182 10.7 188 10.3 194 10.8C200 11.3 206 12.7 211.8 13.7C217.7 14.7 223.3 15.3 229.2 15.2C235 15 241 14 247 12.7C253 11.3 259 9.7 264.8 9.5C270.7 9.3 276.3 10.7 282.2 12.2C288 13.7 294 15.3 297 16.2L300 17L300 0L297 0C294 0 288 0 282.2 0C276.3 0 270.7 0 264.8 0C259 0 253 0 247 0C241 0 235 0 229.2 0C223.3 0 217.7 0 211.8 0C206 0 200 0 194 0C188 0 182 0 176.2 0C170.3 0 164.7 0 158.8 0C153 0 147 0 141.2 0C135.3 0 129.7 0 123.8 0C118 0 112 0 106 0C100 0 94 0 88.2 0C82.3 0 76.7 0 70.8 0C65 0 59 0 53 0C47 0 41 0 35.2 0C29.3 0 23.7 0 17.8 0C12 0 6 0 3 0L0 0Z" fill="#d80099"></path><path d="M0 6L3 6.7C6 7.3 12 8.7 17.8 9.3C23.7 10 29.3 10 35.2 9.8C41 9.7 47 9.3 53 9.2C59 9 65 9 70.8 9.2C76.7 9.3 82.3 9.7 88.2 10C94 10.3 100 10.7 106 9.5C112 8.3 118 5.7 123.8 4.7C129.7 3.7 135.3 4.3 141.2 5.2C147 6 153 7 158.8 7.2C164.7 7.3 170.3 6.7 176.2 7.2C182 7.7 188 9.3 194 9.7C200 10 206 9 211.8 8.2C217.7 7.3 223.3 6.7 229.2 6.2C235 5.7 241 5.3 247 5.2C253 5 259 5 264.8 5.7C270.7 6.3 276.3 7.7 282.2 8C288 8.3 294 7.7 297 7.3L300 7L300 0L297 0C294 0 288 0 282.2 0C276.3 0 270.7 0 264.8 0C259 0 253 0 247 0C241 0 235 0 229.2 0C223.3 0 217.7 0 211.8 0C206 0 200 0 194 0C188 0 182 0 176.2 0C170.3 0 164.7 0 158.8 0C153 0 147 0 141.2 0C135.3 0 129.7 0 123.8 0C118 0 112 0 106 0C100 0 94 0 88.2 0C82.3 0 76.7 0 70.8 0C65 0 59 0 53 0C47 0 41 0 35.2 0C29.3 0 23.7 0 17.8 0C12 0 6 0 3 0L0 0Z" fill="#760fcb"></path></svg>