<svg id="visual" viewBox="0 0 900 600" width="900" height="600" xmlns="http://www.w3.org/2000/svg" xmlns:xlink="http://www.w3.org/1999/xlink" version="1.1"><rect x="0" y="0" width="900" height="600" fill="#FFFFFF"></rect><defs><linearGradient id="grad1_0" x1="33.3%" y1="100%" x2="100%" y2="0%"><stop offset="20%" stop-color="#fa3cbb" stop-opacity="1"></stop><stop offset="80%" stop-color="#fa3cbb" stop-opacity="1"></stop></linearGradient></defs><defs><linearGradient id="grad1_1" x1="33.3%" y1="100%" x2="100%" y2="0%"><stop offset="20%" stop-color="#fa3cbb" stop-opacity="1"></stop><stop offset="80%" stop-color="#ff8bd2" stop-opacity="1"></stop></linearGradient></defs><defs><linearGradient id="grad1_2" x1="33.3%" y1="100%" x2="100%" y2="0%"><stop offset="20%" stop-color="#ffc7e8" stop-opacity="1"></stop><stop offset="80%" stop-color="#ff8bd2" stop-opacity="1"></stop></linearGradient></defs><defs><linearGradient id="grad1_3" x1="33.3%" y1="100%" x2="100%" y2="0%"><stop offset="20%" stop-color="#ffc7e8" stop-opacity="1"></stop><stop offset="80%" stop-color="#ffffff" stop-opacity="1"></stop></linearGradient></defs><defs><linearGradient id="grad2_0" x1="0%" y1="100%" x2="66.7%" y2="0%"><stop offset="20%" stop-color="#fa3cbb" stop-opacity="1"></stop><stop offset="80%" stop-color="#fa3cbb" stop-opacity="1"></stop></linearGradient></defs><defs><linearGradient id="grad2_1" x1="0%" y1="100%" x2="66.7%" y2="0%"><stop offset="20%" stop-color="#ff8bd2" stop-opacity="1"></stop><stop offset="80%" stop-color="#fa3cbb" stop-opacity="1"></stop></linearGradient></defs><defs><linearGradient id="grad2_2" x1="0%" y1="100%" x2="66.7%" y2="0%"><stop offset="20%" stop-color="#ff8bd2" stop-opacity="1"></stop><stop offset="80%" stop-color="#ffc7e8" stop-opacity="1"></stop></linearGradient></defs><defs><linearGradient id="grad2_3" x1="0%" y1="100%" x2="66.7%" y2="0%"><stop offset="20%" stop-color="#ffffff" stop-opacity="1"></stop><stop offset="80%" stop-color="#ffc7e8" stop-opacity="1"></stop></linearGradient></defs><g transform="translate(900, 600)"><path d="M-486.7 0C-480.8 -69.4 -474.8 -138.8 -436.1 -180.6C-397.3 -222.4 -325.7 -236.6 -283.5 -283.5C-241.4 -330.5 -228.6 -410.4 -186.3 -449.7C-143.9 -489 -72 -487.9 0 -486.7L0 0Z" fill="#ffe3f4"></path><path d="M-365.1 0C-360.6 -52.1 -356.1 -104.1 -327.1 -135.5C-298 -166.8 -244.3 -177.4 -212.7 -212.7C-181 -247.9 -171.5 -307.8 -139.7 -337.3C-107.9 -366.8 -54 -365.9 0 -365.1L0 0Z" fill="#ffaadd"></path><path d="M-243.4 0C-240.4 -34.7 -237.4 -69.4 -218 -90.3C-198.7 -111.2 -162.9 -118.3 -141.8 -141.8C-120.7 -165.3 -114.3 -205.2 -93.1 -224.8C-72 -244.5 -36 -243.9 0 -243.4L0 0Z" fill="#fe68c6"></path><path d="M-121.7 0C-120.2 -17.4 -118.7 -34.7 -109 -45.2C-99.3 -55.6 -81.4 -59.1 -70.9 -70.9C-60.3 -82.6 -57.2 -102.6 -46.6 -112.4C-36 -122.3 -18 -122 0 -121.7L0 0Z" fill="#fa3cbb"></path></g><g transform="translate(0, 0)"><path d="M486.7 0C453.5 52.4 420.3 104.8 401.9 166.5C383.5 228.1 380 298.9 344.2 344.2C308.4 389.5 240.3 409.2 177.6 428.7C114.8 448.2 57.4 467.5 0 486.7L0 0Z" fill="#ffe3f4"></path><path d="M365.1 0C340.1 39.3 315.2 78.6 301.4 124.9C287.6 171.1 285 224.2 258.1 258.1C231.3 292.1 180.2 306.9 133.2 321.5C86.1 336.1 43.1 350.6 0 365.1L0 0Z" fill="#ffaadd"></path><path d="M243.4 0C226.8 26.2 210.1 52.4 200.9 83.2C191.8 114 190 149.5 172.1 172.1C154.2 194.7 120.2 204.6 88.8 214.3C57.4 224.1 28.7 233.7 0 243.4L0 0Z" fill="#fe68c6"></path><path d="M121.7 0C113.4 13.1 105.1 26.2 100.5 41.6C95.9 57 95 74.7 86 86C77.1 97.4 60.1 102.3 44.4 107.2C28.7 112 14.4 116.9 0 121.7L0 0Z" fill="#fa3cbb"></path></g></svg>