<svg id="visual" viewBox="0 0 900 300" width="900" height="300" xmlns="http://www.w3.org/2000/svg" xmlns:xlink="http://www.w3.org/1999/xlink" version="1.1"><rect x="0" y="0" width="900" height="300" fill="#FFFFFF"></rect><path d="M0 156L16.7 157.7C33.3 159.3 66.7 162.7 100 156C133.3 149.3 166.7 132.7 200 121.2C233.3 109.7 266.7 103.3 300 105.3C333.3 107.3 366.7 117.7 400 116.7C433.3 115.7 466.7 103.3 500 106.8C533.3 110.3 566.7 129.7 600 131.5C633.3 133.3 666.7 117.7 700 114C733.3 110.3 766.7 118.7 800 122.5C833.3 126.3 866.7 125.7 883.3 125.3L900 125L900 0L883.3 0C866.7 0 833.3 0 800 0C766.7 0 733.3 0 700 0C666.7 0 633.3 0 600 0C566.7 0 533.3 0 500 0C466.7 0 433.3 0 400 0C366.7 0 333.3 0 300 0C266.7 0 233.3 0 200 0C166.7 0 133.3 0 100 0C66.7 0 33.3 0 16.7 0L0 0Z" fill="#760fcb"></path><path d="M0 136L16.7 136.2C33.3 136.3 66.7 136.7 100 135.7C133.3 134.7 166.7 132.3 200 124.5C233.3 116.7 266.7 103.3 300 98.7C333.3 94 366.7 98 400 103.3C433.3 108.7 466.7 115.3 500 110C533.3 104.7 566.7 87.3 600 84.8C633.3 82.3 666.7 94.7 700 95.7C733.3 96.7 766.7 86.3 800 86.3C833.3 86.3 866.7 96.7 883.3 101.8L900 107L900 0L883.3 0C866.7 0 833.3 0 800 0C766.7 0 733.3 0 700 0C666.7 0 633.3 0 600 0C566.7 0 533.3 0 500 0C466.7 0 433.3 0 400 0C366.7 0 333.3 0 300 0C266.7 0 233.3 0 200 0C166.7 0 133.3 0 100 0C66.7 0 33.3 0 16.7 0L0 0Z" fill="#b400b0"></path><path d="M0 64L16.7 67.2C33.3 70.3 66.7 76.7 100 83.3C133.3 90 166.7 97 200 101.3C233.3 105.7 266.7 107.3 300 109.5C333.3 111.7 366.7 114.3 400 108.8C433.3 103.3 466.7 89.7 500 81.2C533.3 72.7 566.7 69.3 600 72.3C633.3 75.3 666.7 84.7 700 91.2C733.3 97.7 766.7 101.3 800 98.3C833.3 95.3 866.7 85.7 883.3 80.8L900 76L900 0L883.3 0C866.7 0 833.3 0 800 0C766.7 0 733.3 0 700 0C666.7 0 633.3 0 600 0C566.7 0 533.3 0 500 0C466.7 0 433.3 0 400 0C366.7 0 333.3 0 300 0C266.7 0 233.3 0 200 0C166.7 0 133.3 0 100 0C66.7 0 33.3 0 16.7 0L0 0Z" fill="#da0094"></path><path d="M0 104L16.7 102.7C33.3 101.3 66.7 98.7 100 92.8C133.3 87 166.7 78 200 72.3C233.3 66.7 266.7 64.3 300 67.8C333.3 71.3 366.7 80.7 400 83C433.3 85.3 466.7 80.7 500 78.3C533.3 76 566.7 76 600 72.2C633.3 68.3 666.7 60.7 700 63.8C733.3 67 766.7 81 800 81.3C833.3 81.7 866.7 68.3 883.3 61.7L900 55L900 0L883.3 0C866.7 0 833.3 0 800 0C766.7 0 733.3 0 700 0C666.7 0 633.3 0 600 0C566.7 0 533.3 0 500 0C466.7 0 433.3 0 400 0C366.7 0 333.3 0 300 0C266.7 0 233.3 0 200 0C166.7 0 133.3 0 100 0C66.7 0 33.3 0 16.7 0L0 0Z" fill="#f10078"></path><path d="M0 73L16.7 74.3C33.3 75.7 66.7 78.3 100 81.3C133.3 84.3 166.7 87.7 200 88.3C233.3 89 266.7 87 300 78.7C333.3 70.3 366.7 55.7 400 50.5C433.3 45.3 466.7 49.7 500 49.8C533.3 50 566.7 46 600 50C633.3 54 666.7 66 700 65.8C733.3 65.7 766.7 53.3 800 54.8C833.3 56.3 866.7 71.7 883.3 79.3L900 87L900 0L883.3 0C866.7 0 833.3 0 800 0C766.7 0 733.3 0 700 0C666.7 0 633.3 0 600 0C566.7 0 533.3 0 500 0C466.7 0 433.3 0 400 0C366.7 0 333.3 0 300 0C266.7 0 233.3 0 200 0C166.7 0 133.3 0 100 0C66.7 0 33.3 0 16.7 0L0 0Z" fill="#fd2960"></path><path d="M0 63L16.7 64.5C33.3 66 66.7 69 100 65.8C133.3 62.7 166.7 53.3 200 50.8C233.3 48.3 266.7 52.7 300 55.3C333.3 58 366.7 59 400 61.2C433.3 63.3 466.7 66.7 500 63.2C533.3 59.7 566.7 49.3 600 48.3C633.3 47.3 666.7 55.7 700 59.7C733.3 63.7 766.7 63.3 800 61.3C833.3 59.3 866.7 55.7 883.3 53.8L900 52L900 0L883.3 0C866.7 0 833.3 0 800 0C766.7 0 733.3 0 700 0C666.7 0 633.3 0 600 0C566.7 0 533.3 0 500 0C466.7 0 433.3 0 400 0C366.7 0 333.3 0 300 0C266.7 0 233.3 0 200 0C166.7 0 133.3 0 100 0C66.7 0 33.3 0 16.7 0L0 0Z" fill="#ff544c"></path><path d="M0 20L16.7 20.3C33.3 20.7 66.7 21.3 100 22.5C133.3 23.7 166.7 25.3 200 28.3C233.3 31.3 266.7 35.7 300 38.5C333.3 41.3 366.7 42.7 400 39C433.3 35.3 466.7 26.7 500 27.7C533.3 28.7 566.7 39.3 600 39.5C633.3 39.7 666.7 29.3 700 28C733.3 26.7 766.7 34.3 800 39.2C833.3 44 866.7 46 883.3 47L900 48L900 0L883.3 0C866.7 0 833.3 0 800 0C766.7 0 733.3 0 700 0C666.7 0 633.3 0 600 0C566.7 0 533.3 0 500 0C466.7 0 433.3 0 400 0C366.7 0 333.3 0 300 0C266.7 0 233.3 0 200 0C166.7 0 133.3 0 100 0C66.7 0 33.3 0 16.7 0L0 0Z" fill="#fc753e"></path><path d="M0 12L16.7 12.2C33.3 12.3 66.7 12.7 100 12.5C133.3 12.3 166.7 11.7 200 15C233.3 18.3 266.7 25.7 300 28.2C333.3 30.7 366.7 28.3 400 26.7C433.3 25 466.7 24 500 21.3C533.3 18.7 566.7 14.3 600 14.8C633.3 15.3 666.7 20.7 700 19.7C733.3 18.7 766.7 11.3 800 8C833.3 4.7 866.7 5.3 883.3 5.7L900 6L900 0L883.3 0C866.7 0 833.3 0 800 0C766.7 0 733.3 0 700 0C666.7 0 633.3 0 600 0C566.7 0 533.3 0 500 0C466.7 0 433.3 0 400 0C366.7 0 333.3 0 300 0C266.7 0 233.3 0 200 0C166.7 0 133.3 0 100 0C66.7 0 33.3 0 16.7 0L0 0Z" fill="#f49237"></path></svg>