<svg id="visual" viewBox="0 0 900 600" width="900" height="600" xmlns="http://www.w3.org/2000/svg" xmlns:xlink="http://www.w3.org/1999/xlink" version="1.1"><rect x="0" y="0" width="900" height="600" fill="#FFFFFF"></rect><path d="M0 63L10 67.2C20 71.3 40 79.7 60 78.2C80 76.7 100 65.3 120 62.7C140 60 160 66 180 72.8C200 79.7 220 87.3 240 86.3C260 85.3 280 75.7 300 73.7C320 71.7 340 77.3 360 80.2C380 83 400 83 420 79.8C440 76.7 460 70.3 480 72C500 73.7 520 83.3 540 85.3C560 87.3 580 81.7 600 76.2C620 70.7 640 65.3 660 65.3C680 65.3 700 70.7 720 73.5C740 76.3 760 76.7 780 76.5C800 76.3 820 75.7 840 77C860 78.3 880 81.7 890 83.3L900 85L900 0L890 0C880 0 860 0 840 0C820 0 800 0 780 0C760 0 740 0 720 0C700 0 680 0 660 0C640 0 620 0 600 0C580 0 560 0 540 0C520 0 500 0 480 0C460 0 440 0 420 0C400 0 380 0 360 0C340 0 320 0 300 0C280 0 260 0 240 0C220 0 200 0 180 0C160 0 140 0 120 0C100 0 80 0 60 0C40 0 20 0 10 0L0 0Z" fill="#f7770f"></path><path d="M0 53L10 56.3C20 59.7 40 66.3 60 67.7C80 69 100 65 120 63.2C140 61.3 160 61.7 180 61.3C200 61 220 60 240 60C260 60 280 61 300 60.8C320 60.7 340 59.3 360 56.3C380 53.3 400 48.7 420 45.8C440 43 460 42 480 42.8C500 43.7 520 46.3 540 51C560 55.7 580 62.3 600 66.7C620 71 640 73 660 71.2C680 69.3 700 63.7 720 63C740 62.3 760 66.7 780 66C800 65.3 820 59.7 840 54.8C860 50 880 46 890 44L900 42L900 0L890 0C880 0 860 0 840 0C820 0 800 0 780 0C760 0 740 0 720 0C700 0 680 0 660 0C640 0 620 0 600 0C580 0 560 0 540 0C520 0 500 0 480 0C460 0 440 0 420 0C400 0 380 0 360 0C340 0 320 0 300 0C280 0 260 0 240 0C220 0 200 0 180 0C160 0 140 0 120 0C100 0 80 0 60 0C40 0 20 0 10 0L0 0Z" fill="#ff3550"></path><path d="M0 32L10 31C20 30 40 28 60 30.8C80 33.7 100 41.3 120 41.8C140 42.3 160 35.7 180 34.5C200 33.3 220 37.7 240 41.2C260 44.7 280 47.3 300 49.3C320 51.3 340 52.7 360 51.3C380 50 400 46 420 42.5C440 39 460 36 480 36.2C500 36.3 520 39.7 540 38.2C560 36.7 580 30.3 600 28.7C620 27 640 30 660 31.2C680 32.3 700 31.7 720 31.7C740 31.7 760 32.3 780 32.5C800 32.7 820 32.3 840 36C860 39.7 880 47.3 890 51.2L900 55L900 0L890 0C880 0 860 0 840 0C820 0 800 0 780 0C760 0 740 0 720 0C700 0 680 0 660 0C640 0 620 0 600 0C580 0 560 0 540 0C520 0 500 0 480 0C460 0 440 0 420 0C400 0 380 0 360 0C340 0 320 0 300 0C280 0 260 0 240 0C220 0 200 0 180 0C160 0 140 0 120 0C100 0 80 0 60 0C40 0 20 0 10 0L0 0Z" fill="#e2008a"></path><path d="M0 27L10 26.7C20 26.3 40 25.7 60 26C80 26.3 100 27.7 120 28.3C140 29 160 29 180 27.2C200 25.3 220 21.7 240 18.8C260 16 280 14 300 16.5C320 19 340 26 360 27C380 28 400 23 420 21.7C440 20.3 460 22.7 480 25.2C500 27.7 520 30.3 540 30.2C560 30 580 27 600 25C620 23 640 22 660 20C680 18 700 15 720 14C740 13 760 14 780 17.2C800 20.3 820 25.7 840 26.7C860 27.7 880 24.3 890 22.7L900 21L900 0L890 0C880 0 860 0 840 0C820 0 800 0 780 0C760 0 740 0 720 0C700 0 680 0 660 0C640 0 620 0 600 0C580 0 560 0 540 0C520 0 500 0 480 0C460 0 440 0 420 0C400 0 380 0 360 0C340 0 320 0 300 0C280 0 260 0 240 0C220 0 200 0 180 0C160 0 140 0 120 0C100 0 80 0 60 0C40 0 20 0 10 0L0 0Z" fill="#760fcb"></path></svg>