<svg id="visual" viewBox="0 0 900 600" width="900" height="600" xmlns="http://www.w3.org/2000/svg" xmlns:xlink="http://www.w3.org/1999/xlink" version="1.1"><rect x="0" y="0" width="900" height="600" fill="#760fcb"></rect><path d="M0 193L16.7 189.5C33.3 186 66.7 179 100 173.8C133.3 168.7 166.7 165.3 200 171.3C233.3 177.3 266.7 192.7 300 190.8C333.3 189 366.7 170 400 161.2C433.3 152.3 466.7 153.7 500 150.2C533.3 146.7 566.7 138.3 600 138.8C633.3 139.3 666.7 148.7 700 166.7C733.3 184.7 766.7 211.3 800 217.8C833.3 224.3 866.7 210.7 883.3 203.8L900 197L900 0L883.3 0C866.7 0 833.3 0 800 0C766.7 0 733.3 0 700 0C666.7 0 633.3 0 600 0C566.7 0 533.3 0 500 0C466.7 0 433.3 0 400 0C366.7 0 333.3 0 300 0C266.7 0 233.3 0 200 0C166.7 0 133.3 0 100 0C66.7 0 33.3 0 16.7 0L0 0Z" fill="#760fcb"></path><path d="M0 112L16.7 120.7C33.3 129.3 66.7 146.7 100 155C133.3 163.3 166.7 162.7 200 168.3C233.3 174 266.7 186 300 191.2C333.3 196.3 366.7 194.7 400 188.7C433.3 182.7 466.7 172.3 500 167C533.3 161.7 566.7 161.3 600 161.8C633.3 162.3 666.7 163.7 700 169.7C733.3 175.7 766.7 186.3 800 193.3C833.3 200.3 866.7 203.7 883.3 205.3L900 207L900 0L883.3 0C866.7 0 833.3 0 800 0C766.7 0 733.3 0 700 0C666.7 0 633.3 0 600 0C566.7 0 533.3 0 500 0C466.7 0 433.3 0 400 0C366.7 0 333.3 0 300 0C266.7 0 233.3 0 200 0C166.7 0 133.3 0 100 0C66.7 0 33.3 0 16.7 0L0 0Z" fill="#8622c7"></path><path d="M0 107L16.7 113.7C33.3 120.3 66.7 133.7 100 134.8C133.3 136 166.7 125 200 116.7C233.3 108.3 266.7 102.7 300 101.2C333.3 99.7 366.7 102.3 400 102.7C433.3 103 466.7 101 500 104C533.3 107 566.7 115 600 125.5C633.3 136 666.7 149 700 149C733.3 149 766.7 136 800 126C833.3 116 866.7 109 883.3 105.5L900 102L900 0L883.3 0C866.7 0 833.3 0 800 0C766.7 0 733.3 0 700 0C666.7 0 633.3 0 600 0C566.7 0 533.3 0 500 0C466.7 0 433.3 0 400 0C366.7 0 333.3 0 300 0C266.7 0 233.3 0 200 0C166.7 0 133.3 0 100 0C66.7 0 33.3 0 16.7 0L0 0Z" fill="#9232c3"></path><path d="M0 77L16.7 76.5C33.3 76 66.7 75 100 85.5C133.3 96 166.7 118 200 127.2C233.3 136.3 266.7 132.7 300 122.3C333.3 112 366.7 95 400 89.7C433.3 84.3 466.7 90.7 500 101C533.3 111.3 566.7 125.7 600 125.8C633.3 126 666.7 112 700 107.8C733.3 103.7 766.7 109.3 800 110.5C833.3 111.7 866.7 108.3 883.3 106.7L900 105L900 0L883.3 0C866.7 0 833.3 0 800 0C766.7 0 733.3 0 700 0C666.7 0 633.3 0 600 0C566.7 0 533.3 0 500 0C466.7 0 433.3 0 400 0C366.7 0 333.3 0 300 0C266.7 0 233.3 0 200 0C166.7 0 133.3 0 100 0C66.7 0 33.3 0 16.7 0L0 0Z" fill="#9d40bf"></path><path d="M0 100L16.7 101.2C33.3 102.3 66.7 104.7 100 102C133.3 99.3 166.7 91.7 200 92.5C233.3 93.3 266.7 102.7 300 103C333.3 103.3 366.7 94.7 400 92.7C433.3 90.7 466.7 95.3 500 99C533.3 102.7 566.7 105.3 600 107C633.3 108.7 666.7 109.3 700 102.3C733.3 95.3 766.7 80.7 800 76.3C833.3 72 866.7 78 883.3 81L900 84L900 0L883.3 0C866.7 0 833.3 0 800 0C766.7 0 733.3 0 700 0C666.7 0 633.3 0 600 0C566.7 0 533.3 0 500 0C466.7 0 433.3 0 400 0C366.7 0 333.3 0 300 0C266.7 0 233.3 0 200 0C166.7 0 133.3 0 100 0C66.7 0 33.3 0 16.7 0L0 0Z" fill="#a64ebc"></path><path d="M0 64L16.7 66.2C33.3 68.3 66.7 72.7 100 75.3C133.3 78 166.7 79 200 73.3C233.3 67.7 266.7 55.3 300 53.3C333.3 51.3 366.7 59.7 400 61.2C433.3 62.7 466.7 57.3 500 59.2C533.3 61 566.7 70 600 68.8C633.3 67.7 666.7 56.3 700 49.8C733.3 43.3 766.7 41.7 800 41C833.3 40.3 866.7 40.7 883.3 40.8L900 41L900 0L883.3 0C866.7 0 833.3 0 800 0C766.7 0 733.3 0 700 0C666.7 0 633.3 0 600 0C566.7 0 533.3 0 500 0C466.7 0 433.3 0 400 0C366.7 0 333.3 0 300 0C266.7 0 233.3 0 200 0C166.7 0 133.3 0 100 0C66.7 0 33.3 0 16.7 0L0 0Z" fill="#ad5cba"></path><path d="M0 19L16.7 20C33.3 21 66.7 23 100 28.5C133.3 34 166.7 43 200 44C233.3 45 266.7 38 300 38.5C333.3 39 366.7 47 400 47.3C433.3 47.7 466.7 40.3 500 38.5C533.3 36.7 566.7 40.3 600 41.8C633.3 43.3 666.7 42.7 700 40.2C733.3 37.7 766.7 33.3 800 29.7C833.3 26 866.7 23 883.3 21.5L900 20L900 0L883.3 0C866.7 0 833.3 0 800 0C766.7 0 733.3 0 700 0C666.7 0 633.3 0 600 0C566.7 0 533.3 0 500 0C466.7 0 433.3 0 400 0C366.7 0 333.3 0 300 0C266.7 0 233.3 0 200 0C166.7 0 133.3 0 100 0C66.7 0 33.3 0 16.7 0L0 0Z" fill="#b369b8"></path></svg>