<svg id="visual" viewBox="0 0 900 600" width="900" height="600" xmlns="http://www.w3.org/2000/svg" xmlns:xlink="http://www.w3.org/1999/xlink" version="1.1"><rect x="0" y="0" width="900" height="600" fill="#F49237"></rect><path d="M0 296L16.7 282.2C33.3 268.3 66.7 240.7 100 236.7C133.3 232.7 166.7 252.3 200 254.7C233.3 257 266.7 242 300 236.8C333.3 231.7 366.7 236.3 400 245.5C433.3 254.7 466.7 268.3 500 262.5C533.3 256.7 566.7 231.3 600 229.7C633.3 228 666.7 250 700 259.2C733.3 268.3 766.7 264.7 800 262C833.3 259.3 866.7 257.7 883.3 256.8L900 256L900 0L883.3 0C866.7 0 833.3 0 800 0C766.7 0 733.3 0 700 0C666.7 0 633.3 0 600 0C566.7 0 533.3 0 500 0C466.7 0 433.3 0 400 0C366.7 0 333.3 0 300 0C266.7 0 233.3 0 200 0C166.7 0 133.3 0 100 0C66.7 0 33.3 0 16.7 0L0 0Z" fill="#f49237"></path><path d="M0 246L16.7 249.2C33.3 252.3 66.7 258.7 100 258.5C133.3 258.3 166.7 251.7 200 243.8C233.3 236 266.7 227 300 229.8C333.3 232.7 366.7 247.3 400 252.7C433.3 258 466.7 254 500 245.8C533.3 237.7 566.7 225.3 600 218.5C633.3 211.7 666.7 210.3 700 210.8C733.3 211.3 766.7 213.7 800 211C833.3 208.3 866.7 200.7 883.3 196.8L900 193L900 0L883.3 0C866.7 0 833.3 0 800 0C766.7 0 733.3 0 700 0C666.7 0 633.3 0 600 0C566.7 0 533.3 0 500 0C466.7 0 433.3 0 400 0C366.7 0 333.3 0 300 0C266.7 0 233.3 0 200 0C166.7 0 133.3 0 100 0C66.7 0 33.3 0 16.7 0L0 0Z" fill="#fb8547"></path><path d="M0 214L16.7 219.2C33.3 224.3 66.7 234.7 100 234.7C133.3 234.7 166.7 224.3 200 221.7C233.3 219 266.7 224 300 227.5C333.3 231 366.7 233 400 227C433.3 221 466.7 207 500 198.7C533.3 190.3 566.7 187.7 600 186.5C633.3 185.3 666.7 185.7 700 189.8C733.3 194 766.7 202 800 207.5C833.3 213 866.7 216 883.3 217.5L900 219L900 0L883.3 0C866.7 0 833.3 0 800 0C766.7 0 733.3 0 700 0C666.7 0 633.3 0 600 0C566.7 0 533.3 0 500 0C466.7 0 433.3 0 400 0C366.7 0 333.3 0 300 0C266.7 0 233.3 0 200 0C166.7 0 133.3 0 100 0C66.7 0 33.3 0 16.7 0L0 0Z" fill="#ff7a57"></path><path d="M0 216L16.7 214.5C33.3 213 66.7 210 100 209.2C133.3 208.3 166.7 209.7 200 204C233.3 198.3 266.7 185.7 300 179.5C333.3 173.3 366.7 173.7 400 175.3C433.3 177 466.7 180 500 185.8C533.3 191.7 566.7 200.3 600 201.3C633.3 202.3 666.7 195.7 700 188.2C733.3 180.7 766.7 172.3 800 167.7C833.3 163 866.7 162 883.3 161.5L900 161L900 0L883.3 0C866.7 0 833.3 0 800 0C766.7 0 733.3 0 700 0C666.7 0 633.3 0 600 0C566.7 0 533.3 0 500 0C466.7 0 433.3 0 400 0C366.7 0 333.3 0 300 0C266.7 0 233.3 0 200 0C166.7 0 133.3 0 100 0C66.7 0 33.3 0 16.7 0L0 0Z" fill="#fe7068"></path><path d="M0 123L16.7 126C33.3 129 66.7 135 100 138.2C133.3 141.3 166.7 141.7 200 144.7C233.3 147.7 266.7 153.3 300 161C333.3 168.7 366.7 178.3 400 183C433.3 187.7 466.7 187.3 500 185.2C533.3 183 566.7 179 600 175.3C633.3 171.7 666.7 168.3 700 164.5C733.3 160.7 766.7 156.3 800 158.7C833.3 161 866.7 170 883.3 174.5L900 179L900 0L883.3 0C866.7 0 833.3 0 800 0C766.7 0 733.3 0 700 0C666.7 0 633.3 0 600 0C566.7 0 533.3 0 500 0C466.7 0 433.3 0 400 0C366.7 0 333.3 0 300 0C266.7 0 233.3 0 200 0C166.7 0 133.3 0 100 0C66.7 0 33.3 0 16.7 0L0 0Z" fill="#fa6978"></path><path d="M0 112L16.7 112.5C33.3 113 66.7 114 100 119.8C133.3 125.7 166.7 136.3 200 140.5C233.3 144.7 266.7 142.3 300 142.2C333.3 142 366.7 144 400 141.8C433.3 139.7 466.7 133.3 500 131.2C533.3 129 566.7 131 600 131.7C633.3 132.3 666.7 131.7 700 132.5C733.3 133.3 766.7 135.7 800 131.5C833.3 127.3 866.7 116.7 883.3 111.3L900 106L900 0L883.3 0C866.7 0 833.3 0 800 0C766.7 0 733.3 0 700 0C666.7 0 633.3 0 600 0C566.7 0 533.3 0 500 0C466.7 0 433.3 0 400 0C366.7 0 333.3 0 300 0C266.7 0 233.3 0 200 0C166.7 0 133.3 0 100 0C66.7 0 33.3 0 16.7 0L0 0Z" fill="#f36488"></path><path d="M0 97L16.7 96.3C33.3 95.7 66.7 94.3 100 99.3C133.3 104.3 166.7 115.7 200 117.5C233.3 119.3 266.7 111.7 300 107C333.3 102.3 366.7 100.7 400 97C433.3 93.3 466.7 87.7 500 85.5C533.3 83.3 566.7 84.7 600 87.3C633.3 90 666.7 94 700 101C733.3 108 766.7 118 800 121.3C833.3 124.7 866.7 121.3 883.3 119.7L900 118L900 0L883.3 0C866.7 0 833.3 0 800 0C766.7 0 733.3 0 700 0C666.7 0 633.3 0 600 0C566.7 0 533.3 0 500 0C466.7 0 433.3 0 400 0C366.7 0 333.3 0 300 0C266.7 0 233.3 0 200 0C166.7 0 133.3 0 100 0C66.7 0 33.3 0 16.7 0L0 0Z" fill="#e86297"></path><path d="M0 96L16.7 97C33.3 98 66.7 100 100 96.8C133.3 93.7 166.7 85.3 200 81.7C233.3 78 266.7 79 300 75.8C333.3 72.7 366.7 65.3 400 62C433.3 58.7 466.7 59.3 500 64C533.3 68.7 566.7 77.3 600 80.5C633.3 83.7 666.7 81.3 700 78C733.3 74.7 766.7 70.3 800 69C833.3 67.7 866.7 69.3 883.3 70.2L900 71L900 0L883.3 0C866.7 0 833.3 0 800 0C766.7 0 733.3 0 700 0C666.7 0 633.3 0 600 0C566.7 0 533.3 0 500 0C466.7 0 433.3 0 400 0C366.7 0 333.3 0 300 0C266.7 0 233.3 0 200 0C166.7 0 133.3 0 100 0C66.7 0 33.3 0 16.7 0L0 0Z" fill="#d963a4"></path><path d="M0 51L16.7 54.8C33.3 58.7 66.7 66.3 100 67.5C133.3 68.7 166.7 63.3 200 59.5C233.3 55.7 266.7 53.3 300 55.8C333.3 58.3 366.7 65.7 400 65.8C433.3 66 466.7 59 500 57.3C533.3 55.7 566.7 59.3 600 60.7C633.3 62 666.7 61 700 62C733.3 63 766.7 66 800 65.3C833.3 64.7 866.7 60.3 883.3 58.2L900 56L900 0L883.3 0C866.7 0 833.3 0 800 0C766.7 0 733.3 0 700 0C666.7 0 633.3 0 600 0C566.7 0 533.3 0 500 0C466.7 0 433.3 0 400 0C366.7 0 333.3 0 300 0C266.7 0 233.3 0 200 0C166.7 0 133.3 0 100 0C66.7 0 33.3 0 16.7 0L0 0Z" fill="#c766af"></path><path d="M0 37L16.7 36.7C33.3 36.3 66.7 35.7 100 34C133.3 32.3 166.7 29.7 200 31.3C233.3 33 266.7 39 300 38.8C333.3 38.7 366.7 32.3 400 32.8C433.3 33.3 466.7 40.7 500 42.5C533.3 44.3 566.7 40.7 600 38.2C633.3 35.7 666.7 34.3 700 31C733.3 27.7 766.7 22.3 800 24.5C833.3 26.7 866.7 36.3 883.3 41.2L900 46L900 0L883.3 0C866.7 0 833.3 0 800 0C766.7 0 733.3 0 700 0C666.7 0 633.3 0 600 0C566.7 0 533.3 0 500 0C466.7 0 433.3 0 400 0C366.7 0 333.3 0 300 0C266.7 0 233.3 0 200 0C166.7 0 133.3 0 100 0C66.7 0 33.3 0 16.7 0L0 0Z" fill="#b369b8"></path></svg>