<svg id="visual" viewBox="0 0 900 600" width="900" height="600" xmlns="http://www.w3.org/2000/svg" xmlns:xlink="http://www.w3.org/1999/xlink" version="1.1"><rect x="0" y="0" width="900" height="600" fill="#b369b8"></rect><path d="M0 170L16.7 164C33.3 158 66.7 146 100 147.5C133.3 149 166.7 164 200 164.8C233.3 165.7 266.7 152.3 300 157.3C333.3 162.3 366.7 185.7 400 186C433.3 186.3 466.7 163.7 500 168.7C533.3 173.7 566.7 206.3 600 214.2C633.3 222 666.7 205 700 197.5C733.3 190 766.7 192 800 198.7C833.3 205.3 866.7 216.7 883.3 222.3L900 228L900 0L883.3 0C866.7 0 833.3 0 800 0C766.7 0 733.3 0 700 0C666.7 0 633.3 0 600 0C566.7 0 533.3 0 500 0C466.7 0 433.3 0 400 0C366.7 0 333.3 0 300 0C266.7 0 233.3 0 200 0C166.7 0 133.3 0 100 0C66.7 0 33.3 0 16.7 0L0 0Z" fill="#b369b8"></path><path d="M0 161L16.7 152.3C33.3 143.7 66.7 126.3 100 117.7C133.3 109 166.7 109 200 120C233.3 131 266.7 153 300 155.2C333.3 157.3 366.7 139.7 400 145.3C433.3 151 466.7 180 500 183C533.3 186 566.7 163 600 158.2C633.3 153.3 666.7 166.7 700 165.8C733.3 165 766.7 150 800 144.5C833.3 139 866.7 143 883.3 145L900 147L900 0L883.3 0C866.7 0 833.3 0 800 0C766.7 0 733.3 0 700 0C666.7 0 633.3 0 600 0C566.7 0 533.3 0 500 0C466.7 0 433.3 0 400 0C366.7 0 333.3 0 300 0C266.7 0 233.3 0 200 0C166.7 0 133.3 0 100 0C66.7 0 33.3 0 16.7 0L0 0Z" fill="#ad5cba"></path><path d="M0 134L16.7 129.2C33.3 124.3 66.7 114.7 100 122.2C133.3 129.7 166.7 154.3 200 159.5C233.3 164.7 266.7 150.3 300 143C333.3 135.7 366.7 135.3 400 133C433.3 130.7 466.7 126.3 500 122.3C533.3 118.3 566.7 114.7 600 111.2C633.3 107.7 666.7 104.3 700 102.7C733.3 101 766.7 101 800 108C833.3 115 866.7 129 883.3 136L900 143L900 0L883.3 0C866.7 0 833.3 0 800 0C766.7 0 733.3 0 700 0C666.7 0 633.3 0 600 0C566.7 0 533.3 0 500 0C466.7 0 433.3 0 400 0C366.7 0 333.3 0 300 0C266.7 0 233.3 0 200 0C166.7 0 133.3 0 100 0C66.7 0 33.3 0 16.7 0L0 0Z" fill="#a64ebc"></path><path d="M0 78L16.7 88.3C33.3 98.7 66.7 119.3 100 121.7C133.3 124 166.7 108 200 96.7C233.3 85.3 266.7 78.7 300 83.5C333.3 88.3 366.7 104.7 400 108C433.3 111.3 466.7 101.7 500 94.8C533.3 88 566.7 84 600 90.7C633.3 97.3 666.7 114.7 700 118.5C733.3 122.3 766.7 112.7 800 113.5C833.3 114.3 866.7 125.7 883.3 131.3L900 137L900 0L883.3 0C866.7 0 833.3 0 800 0C766.7 0 733.3 0 700 0C666.7 0 633.3 0 600 0C566.7 0 533.3 0 500 0C466.7 0 433.3 0 400 0C366.7 0 333.3 0 300 0C266.7 0 233.3 0 200 0C166.7 0 133.3 0 100 0C66.7 0 33.3 0 16.7 0L0 0Z" fill="#9d40bf"></path><path d="M0 103L16.7 96.2C33.3 89.3 66.7 75.7 100 71.2C133.3 66.7 166.7 71.3 200 72C233.3 72.7 266.7 69.3 300 66.5C333.3 63.7 366.7 61.3 400 65.7C433.3 70 466.7 81 500 87.8C533.3 94.7 566.7 97.3 600 99.7C633.3 102 666.7 104 700 106.3C733.3 108.7 766.7 111.3 800 108.3C833.3 105.3 866.7 96.7 883.3 92.3L900 88L900 0L883.3 0C866.7 0 833.3 0 800 0C766.7 0 733.3 0 700 0C666.7 0 633.3 0 600 0C566.7 0 533.3 0 500 0C466.7 0 433.3 0 400 0C366.7 0 333.3 0 300 0C266.7 0 233.3 0 200 0C166.7 0 133.3 0 100 0C66.7 0 33.3 0 16.7 0L0 0Z" fill="#9232c3"></path><path d="M0 81L16.7 80.3C33.3 79.7 66.7 78.3 100 78.2C133.3 78 166.7 79 200 76.2C233.3 73.3 266.7 66.7 300 62C333.3 57.3 366.7 54.7 400 59C433.3 63.3 466.7 74.7 500 80.3C533.3 86 566.7 86 600 78.2C633.3 70.3 666.7 54.7 700 48.3C733.3 42 766.7 45 800 45C833.3 45 866.7 42 883.3 40.5L900 39L900 0L883.3 0C866.7 0 833.3 0 800 0C766.7 0 733.3 0 700 0C666.7 0 633.3 0 600 0C566.7 0 533.3 0 500 0C466.7 0 433.3 0 400 0C366.7 0 333.3 0 300 0C266.7 0 233.3 0 200 0C166.7 0 133.3 0 100 0C66.7 0 33.3 0 16.7 0L0 0Z" fill="#8622c7"></path><path d="M0 54L16.7 53.2C33.3 52.3 66.7 50.7 100 45.5C133.3 40.3 166.7 31.7 200 31.3C233.3 31 266.7 39 300 43.7C333.3 48.3 366.7 49.7 400 50C433.3 50.3 466.7 49.7 500 45.8C533.3 42 566.7 35 600 33.2C633.3 31.3 666.7 34.7 700 36.5C733.3 38.3 766.7 38.7 800 36.7C833.3 34.7 866.7 30.3 883.3 28.2L900 26L900 0L883.3 0C866.7 0 833.3 0 800 0C766.7 0 733.3 0 700 0C666.7 0 633.3 0 600 0C566.7 0 533.3 0 500 0C466.7 0 433.3 0 400 0C366.7 0 333.3 0 300 0C266.7 0 233.3 0 200 0C166.7 0 133.3 0 100 0C66.7 0 33.3 0 16.7 0L0 0Z" fill="#760fcb"></path></svg>