<svg id="visual" viewBox="0 0 300 50" width="300" height="50" xmlns="http://www.w3.org/2000/svg" xmlns:xlink="http://www.w3.org/1999/xlink" version="1.1"><rect x="0" y="0" width="300" height="50" fill="#FFFFFF"></rect><path d="M0 34L3.8 33.2C7.7 32.3 15.3 30.7 23 29.2C30.7 27.7 38.3 26.3 46 26.2C53.7 26 61.3 27 69 26.7C76.7 26.3 84.3 24.7 92 24.5C99.7 24.3 107.3 25.7 115 28C122.7 30.3 130.3 33.7 138.2 35.3C146 37 154 37 161.8 36.8C169.7 36.7 177.3 36.3 185 35C192.7 33.7 200.3 31.3 208 30.8C215.7 30.3 223.3 31.7 231 32.5C238.7 33.3 246.3 33.7 254 33C261.7 32.3 269.3 30.7 277 31.3C284.7 32 292.3 35 296.2 36.5L300 38L300 0L296.2 0C292.3 0 284.7 0 277 0C269.3 0 261.7 0 254 0C246.3 0 238.7 0 231 0C223.3 0 215.7 0 208 0C200.3 0 192.7 0 185 0C177.3 0 169.7 0 161.8 0C154 0 146 0 138.2 0C130.3 0 122.7 0 115 0C107.3 0 99.7 0 92 0C84.3 0 76.7 0 69 0C61.3 0 53.7 0 46 0C38.3 0 30.7 0 23 0C15.3 0 7.7 0 3.8 0L0 0Z" fill="#760fcb"></path><path d="M0 20L3.8 21.3C7.7 22.7 15.3 25.3 23 26.3C30.7 27.3 38.3 26.7 46 26.3C53.7 26 61.3 26 69 24.7C76.7 23.3 84.3 20.7 92 21.2C99.7 21.7 107.3 25.3 115 26.3C122.7 27.3 130.3 25.7 138.2 25.7C146 25.7 154 27.3 161.8 27C169.7 26.7 177.3 24.3 185 24.7C192.7 25 200.3 28 208 28.3C215.7 28.7 223.3 26.3 231 24.8C238.7 23.3 246.3 22.7 254 23.3C261.7 24 269.3 26 277 26.8C284.7 27.7 292.3 27.3 296.2 27.2L300 27L300 0L296.2 0C292.3 0 284.7 0 277 0C269.3 0 261.7 0 254 0C246.3 0 238.7 0 231 0C223.3 0 215.7 0 208 0C200.3 0 192.7 0 185 0C177.3 0 169.7 0 161.8 0C154 0 146 0 138.2 0C130.3 0 122.7 0 115 0C107.3 0 99.7 0 92 0C84.3 0 76.7 0 69 0C61.3 0 53.7 0 46 0C38.3 0 30.7 0 23 0C15.3 0 7.7 0 3.8 0L0 0Z" fill="#8c2ac4"></path><path d="M0 19L3.8 18.5C7.7 18 15.3 17 23 17.5C30.7 18 38.3 20 46 19.8C53.7 19.7 61.3 17.3 69 16.3C76.7 15.3 84.3 15.7 92 16.3C99.7 17 107.3 18 115 18.2C122.7 18.3 130.3 17.7 138.2 18.5C146 19.3 154 21.7 161.8 22C169.7 22.3 177.3 20.7 185 18.8C192.7 17 200.3 15 208 15.2C215.7 15.3 223.3 17.7 231 18C238.7 18.3 246.3 16.7 254 17.5C261.7 18.3 269.3 21.7 277 21.7C284.7 21.7 292.3 18.3 296.2 16.7L300 15L300 0L296.2 0C292.3 0 284.7 0 277 0C269.3 0 261.7 0 254 0C246.3 0 238.7 0 231 0C223.3 0 215.7 0 208 0C200.3 0 192.7 0 185 0C177.3 0 169.7 0 161.8 0C154 0 146 0 138.2 0C130.3 0 122.7 0 115 0C107.3 0 99.7 0 92 0C84.3 0 76.7 0 69 0C61.3 0 53.7 0 46 0C38.3 0 30.7 0 23 0C15.3 0 7.7 0 3.8 0L0 0Z" fill="#9d40bf"></path><path d="M0 8L3.8 9.7C7.7 11.3 15.3 14.7 23 15.5C30.7 16.3 38.3 14.7 46 14.5C53.7 14.3 61.3 15.7 69 15C76.7 14.3 84.3 11.7 92 10.8C99.7 10 107.3 11 115 12C122.7 13 130.3 14 138.2 14.3C146 14.7 154 14.3 161.8 13.8C169.7 13.3 177.3 12.7 185 12.3C192.7 12 200.3 12 208 11.3C215.7 10.7 223.3 9.3 231 9.3C238.7 9.3 246.3 10.7 254 11C261.7 11.3 269.3 10.7 277 11.7C284.7 12.7 292.3 15.3 296.2 16.7L300 18L300 0L296.2 0C292.3 0 284.7 0 277 0C269.3 0 261.7 0 254 0C246.3 0 238.7 0 231 0C223.3 0 215.7 0 208 0C200.3 0 192.7 0 185 0C177.3 0 169.7 0 161.8 0C154 0 146 0 138.2 0C130.3 0 122.7 0 115 0C107.3 0 99.7 0 92 0C84.3 0 76.7 0 69 0C61.3 0 53.7 0 46 0C38.3 0 30.7 0 23 0C15.3 0 7.7 0 3.8 0L0 0Z" fill="#aa55bb"></path><path d="M0 8L3.8 7.8C7.7 7.7 15.3 7.3 23 7.3C30.7 7.3 38.3 7.7 46 7C53.7 6.3 61.3 4.7 69 3.8C76.7 3 84.3 3 92 4C99.7 5 107.3 7 115 8.2C122.7 9.3 130.3 9.7 138.2 8.8C146 8 154 6 161.8 5.8C169.7 5.7 177.3 7.3 185 8.5C192.7 9.7 200.3 10.3 208 10.2C215.7 10 223.3 9 231 8.7C238.7 8.3 246.3 8.7 254 8.2C261.7 7.7 269.3 6.3 277 5.5C284.7 4.7 292.3 4.3 296.2 4.2L300 4L300 0L296.2 0C292.3 0 284.7 0 277 0C269.3 0 261.7 0 254 0C246.3 0 238.7 0 231 0C223.3 0 215.7 0 208 0C200.3 0 192.7 0 185 0C177.3 0 169.7 0 161.8 0C154 0 146 0 138.2 0C130.3 0 122.7 0 115 0C107.3 0 99.7 0 92 0C84.3 0 76.7 0 69 0C61.3 0 53.7 0 46 0C38.3 0 30.7 0 23 0C15.3 0 7.7 0 3.8 0L0 0Z" fill="#b369b8"></path></svg>